<?xml version="1.0" standalone="no"?><!DOCTYPE svg PUBLIC "-//W3C//DTD SVG 1.1//EN" "http://www.w3.org/Graphics/SVG/1.1/DTD/svg11.dtd"><svg t="1608982280104" class="icon" viewBox="0 0 1024 1024" version="1.1" xmlns="http://www.w3.org/2000/svg" p-id="6800" xmlns:xlink="http://www.w3.org/1999/xlink" width="20" height="20"><defs><style type="text/css"></style></defs><path d="M481.92192 488.32h-384A97.28 97.28 0 0 1 0.00192 391.04V97.28A96.64 96.64 0 0 1 96.00192 0H384.00192a96.64 96.64 0 0 1 96 97.28zM96.00192 64a32.64 32.64 0 0 0-32 32.64v294.4a32 32 0 0 0 32 32h320V97.28A32 32 0 0 0 384.00192 64zM928.00192 488.32h-384V97.28A96.64 96.64 0 0 1 640.00192 0h288A96.64 96.64 0 0 1 1024.00192 97.28v293.76a97.28 97.28 0 0 1-96 97.28z m-320-64h320a32 32 0 0 0 32-32V97.28a32.64 32.64 0 0 0-32-33.28H640.00192a32 32 0 0 0-32 32.64zM384.00192 1024H96.00192A96.64 96.64 0 0 1 0.00192 926.72V632.96a97.28 97.28 0 0 1 96-97.28h384v391.04A96.64 96.64 0 0 1 384.00192 1024zM96.00192 600.96a32 32 0 0 0-32 32v293.76a32.64 32.64 0 0 0 32 32.64H384.00192a32 32 0 0 0 32-32.64V600.96zM928.00192 1024H640.00192a96.64 96.64 0 0 1-96-97.28V535.68h384A97.28 97.28 0 0 1 1024.00192 632.96v293.76A96.64 96.64 0 0 1 928.00192 1024z m-320-423.04v325.76a32 32 0 0 0 32 33.28h288a32.64 32.64 0 0 0 32-32.64v-294.4a32 32 0 0 0-32-32z" p-id="6801" fill="#d81e06"></path></svg>