<?xml version="1.0" standalone="no"?><!DOCTYPE svg PUBLIC "-//W3C//DTD SVG 1.1//EN" "http://www.w3.org/Graphics/SVG/1.1/DTD/svg11.dtd"><svg t="1612342799724" class="icon" viewBox="0 0 1024 1024" version="1.1" xmlns="http://www.w3.org/2000/svg" p-id="10484" xmlns:xlink="http://www.w3.org/1999/xlink" width="20" height="20"><defs><style type="text/css"></style></defs><path d="M843.2 932H178.8c-35.5 0-64.3-30.1-64.3-67.1V469c0-11 9-20 20-20s20 9 20 20v395.9c0 14.9 10.9 27.1 24.3 27.1h664.4c13.4 0 24.3-12.1 24.3-27.1V465.8c0-11 9-20 20-20s20 9 20 20v399.1c0 37-28.9 67.1-64.3 67.1z" fill="#2c2c2c" p-id="10485"></path><path d="M604.4 674.7H417.6c-11 0-20-9-20-20s9-20 20-20h186.7c11 0 20 9 20 20s-8.9 20-19.9 20z" fill="#2c2c2c" p-id="10486"></path><path d="M511 861.4c-11 0-20-9-20-20V654.7c0-11 9-20 20-20s20 9 20 20v186.7c0 11.1-9 20-20 20z" fill="#2c2c2c" p-id="10487"></path><path d="M604.4 749.4H417.6c-11 0-20-9-20-20s9-20 20-20h186.7c11 0 20 9 20 20s-8.9 20-19.9 20zM513.3 658.3c-5.1 0-10.2-2-14.1-5.9L420 573.2c-7.8-7.8-7.8-20.5 0-28.3 7.8-7.8 20.5-7.8 28.3 0l79.2 79.2c7.8 7.8 7.8 20.5 0 28.3-4 3.9-9.1 5.9-14.2 5.9z" fill="#2c2c2c" p-id="10488"></path><path d="M508.7 658.3c-5.1 0-10.2-2-14.1-5.9-7.8-7.8-7.8-20.5 0-28.3l79.2-79.2c7.8-7.8 20.5-7.8 28.3 0 7.8 7.8 7.8 20.5 0 28.3l-79.2 79.2c-3.9 3.9-9 5.9-14.2 5.9z" fill="#2c2c2c" p-id="10489"></path><path d="M816.9 508.5c-30.1 0-60.7-11.9-83.8-32.7-6.9-6.2-13-13-18.1-20.2-5.1 7.2-11.2 14-18.1 20.2-23.2 20.8-53.7 32.7-83.8 32.7-30.1 0-60.7-11.9-83.8-32.7-6.9-6.2-13-13-18.1-20.2-5.1 7.2-11.2 14-18.1 20.2-23.2 20.8-53.7 32.7-83.8 32.7-30.1 0-60.7-11.9-83.8-32.7-6.9-6.2-13-13-18.1-20.2-5.1 7.2-11.2 14-18.1 20.2-23.2 20.8-53.7 32.7-83.8 32.7-63.3 0-114.5-51.2-114.5-114.1 0-17.6 5.8-30.1 11.4-42.1 2.8-6 5.7-12.3 8.1-19.7 0-0.1 0-0.1 0.1-0.2l75.6-226.7c2.7-8.2 10.4-13.7 19-13.7H817c8.6 0 16.3 5.5 19 13.7l75.4 226.2c1.8 4.6 3.9 9.1 6.1 13.8 6.4 13.7 13.6 29.1 13.6 48.6-0.1 63-51.3 114.2-114.2 114.2z m-102-134.1c11 0 20 9 20 20 0 38.8 39.1 74.1 82 74.1 40.9 0 74.1-33.2 74.1-74.1 0-10.6-4.3-19.9-9.9-31.7-2.4-5.2-5-10.6-7.3-16.6-0.1-0.3-0.2-0.6-0.3-1l-71-213.1h-583l-71 213c-3.1 9.7-6.7 17.3-9.9 24.1-4.6 9.9-7.7 16.5-7.7 25.2 0 40.9 33.2 74.1 74.1 74.1 42.9 0 82-35.3 82-74.1 0-11 9-20 20-20s20 9 20 20c0 38.8 39.1 74.1 82 74.1s82-35.3 82-74.1c0-11 9-20 20-20s20 9 20 20c0 38.8 39.1 74.1 82 74.1s82-35.3 82-74.1c-0.1-11 8.9-19.9 19.9-19.9z" fill="#2c2c2c" p-id="10490"></path></svg>